<?xml version="1.0" encoding="utf-8"?>
<!-- Generator: Adobe Illustrator 23.0.3, SVG Export Plug-In . SVG Version: 6.00 Build 0)  -->
<svg version="1.1" id="Layer_1" xmlns="http://www.w3.org/2000/svg" xmlns:xlink="http://www.w3.org/1999/xlink" x="0px" y="0px"
	 viewBox="0 0 391 169" style="enable-background:new 0 0 391 169;" xml:space="preserve">
<style type="text/css">
	.st0{fill:#142246;}
</style>
<title>antenna_bw_default</title>
<g>
	<path class="st0" d="M44.5,106.3c-13.2-1-24.8,8.8-25.8,22.1c-0.2,2.2,0,4.3,0.4,6.4c1.6,9,8.3,16.3,17.1,18.6
		c2.1,0.6,4.3,0.9,6.5,0.9c5.7,0,11.2-2,15.5-5.7v4.4h8.5v-22.4C66.7,118,57.1,107.4,44.5,106.3z M58.2,130.3
		c0,8.6-7,15.5-15.5,15.5s-15.5-7-15.5-15.5s7-15.5,15.5-15.5l0,0C51.3,114.8,58.2,121.7,58.2,130.3L58.2,130.3z"/>
	<path class="st0" d="M352.6,106.3c-13.2-1-24.7,8.9-25.8,22.1c-0.2,2.1,0,4.3,0.4,6.4c1.6,9,8.3,16.2,17.1,18.6
		c2.1,0.6,4.3,0.9,6.5,0.9c5.7,0,11.2-2,15.5-5.7v4.4h8.5v-22.4C374.9,118,365.2,107.4,352.6,106.3z M366.4,130.3
		c0,8.6-7,15.5-15.5,15.5s-15.5-7-15.5-15.5s7-15.5,15.5-15.5l0,0C359.4,114.8,366.3,121.7,366.4,130.3L366.4,130.3z"/>
	<path class="st0" d="M114.8,112.6c-4.9-4.6-11.5-6.9-18.2-6.3c-12.5,1.1-22.1,11.7-22.1,24.3V153H83v-22.5
		c-0.2-8.6,6.7-15.6,15.2-15.8c3.8-0.1,7.6,1.3,10.5,3.8c3.4,2.9,5.4,7.2,5.4,11.8V153h8.5v-22.7
		C122.5,123.6,119.7,117.2,114.8,112.6z"/>
	<path class="st0" d="M257,112.7c-4.9-4.6-11.5-6.9-18.2-6.3c-12.5,1.1-22.1,11.7-22.1,24.3V153h8.5v-22.5
		c-0.2-8.6,6.7-15.6,15.2-15.8c3.8-0.1,7.6,1.3,10.5,3.8c3.4,2.9,5.4,7.2,5.4,11.7V153h8.5v-22.7C264.7,123.6,261.9,117.2,257,112.7
		z"/>
	<path class="st0" d="M312.8,112.7c-4.9-4.6-11.5-6.9-18.2-6.3c-12.5,1.1-22.1,11.7-22.1,24.3V153h8.5v-22.5
		c-0.2-8.6,6.7-15.6,15.2-15.8c3.8-0.1,7.6,1.3,10.5,3.8c3.4,2.9,5.4,7.2,5.4,11.8V153h8.5v-22.7
		C320.6,123.6,317.7,117.2,312.8,112.7z"/>
	<path class="st0" d="M186.9,106.4c-13.2-1.2-24.9,8.5-26.1,21.7c-0.2,2.2-0.1,4.5,0.3,6.7c1.6,9,8.3,16.2,17.1,18.6
		c2.2,0.6,4.5,0.9,6.9,0.9c8.3,0,17-3.6,21.5-9.3l1.8-2.4l-7-4.8l-1.6,2.1c-1.7,2-6,4.5-10.9,5.4c-8.8,1.6-16.9-3-19.1-10.7h39v-3.9
		C208.8,118.1,199.3,107.6,186.9,106.4z M169.8,126.1c2.3-8.3,10.9-13.1,19.2-10.7c5.2,1.5,9.2,5.5,10.7,10.7H169.8z"/>
	<path class="st0" d="M154.3,116.1v-8.5h-15.5v-9.8h-8.5v32.4c0,13,10.4,23.7,23.4,24h0.6v-8.5c-8.5,0-15.5-6.9-15.5-15.5l0,0v-14.1
		H154.3z"/>
</g>
<path class="st0" d="M158.1,45.5L158.1,45.5c-2.1-1.5-2.6-4.3-1.1-6.4l15.9-22.7c1.5-2.1,4.3-2.6,6.4-1.1l0,0
	c2.1,1.5,2.6,4.3,1.1,6.4l-15.9,22.7C163.1,46.5,160.2,47,158.1,45.5L158.1,45.5z M169.1,70.1l37-52.9c1.5-2.1,0.9-5-1.1-6.4l0,0
	l0,0c-2.1-1.5-5-0.9-6.4,1.1l-37,52.9c-1.5,2.1-1,4.9,1.1,6.4l0,0C164.7,72.7,167.6,72.2,169.1,70.1L169.1,70.1z M184.2,80.7
	l47.6-68c1.5-2.1,0.9-5-1.1-6.4l0,0c-2.1-1.5-5-1-6.4,1.1l-47.6,68c-1.5,2.1-0.9,5,1.1,6.4l0,0l0,0
	C179.8,83.2,182.7,82.7,184.2,80.7z M210,76.2l26.5-37.8c1.5-2.1,1-5-1.1-6.4l0,0l0,0c-2.1-1.5-5-1-6.4,1.1c0,0,0,0,0,0.1L202.5,71
	c-1.5,2.1-1,4.9,1.1,6.4l0,0l0,0C205.7,78.9,208.6,78.4,210,76.2C210,76.3,210,76.2,210,76.2z"/>
</svg>
