<svg width="88" height="88" viewBox="0 0 88 88" fill="none" xmlns="http://www.w3.org/2000/svg">
<circle cx="44" cy="45" r="38" fill="white"/>
<path fill-rule="evenodd" clip-rule="evenodd" d="M27.3516 60.4912C25.9541 61.3208 24.2344 61.6011 22.5598 61.0891C19.4098 60.1255 17.6292 56.7833 18.5912 53.6375L26.1292 28.9812C27.0912 25.8355 30.436 24.0604 33.586 25.024C36.1406 25.8047 37.7656 28.1531 37.7864 30.6896C37.7917 31.2812 37.7369 31.8797 37.5546 32.4745L30.0172 57.1307C29.5661 58.6041 28.5817 59.7588 27.3516 60.4912ZM67.2292 56.5593C67.2292 59.8484 64.5494 62.524 61.2552 62.524C57.9609 62.524 55.2802 59.8484 55.2802 56.5593V30.776C55.2802 27.4869 57.9609 24.8109 61.2552 24.8109C64.5494 24.8109 67.2292 27.4869 67.2292 30.776V56.5593ZM52.4973 56.5593C52.4973 59.8484 49.8177 62.524 46.5234 62.524C43.2292 62.524 40.5494 59.8484 40.5494 56.5593V30.776C40.5494 27.4869 43.2292 24.8109 46.5234 24.8109C49.8177 24.8109 52.4973 27.4869 52.4973 30.776V56.5593ZM43.8828 0.0599869C19.7994 0.0599869 0.277039 19.5833 0.277039 43.6661C0.277039 67.7484 19.7994 87.2735 43.8828 87.2735C67.9645 87.2735 87.488 67.7484 87.488 43.6661C87.488 19.5833 67.9645 0.0599869 43.8828 0.0599869Z" fill="#41A53B"/>
</svg>
